# xmcd CD database file
#
# Track frame offsets:
# 150
# 13591
# 25583
# 38690
# 50905
# 64541
# 76867
# 89751
# 103777
# 115806
# 126504
# 138957
# 150877
# 162044
# 175914
# 187387
#
# Disc length: 2639 seconds
# Revision: 2
# Processed by: cddbd v1.5.2PL0 Copyright (c) Steve Scherf et al.
# Submitted via: MusicBin 0.4
#
DISCID=ce0a4d10
DTITLE=T-Bone Walker - The Very Best of T-Bone Walker
DYEAR=2000
DGENRE=Blues
TTITLE0=T-Bone Shuffle
TTITLE1=Bobby Sox Blue
TTITLE2=It's a Lowdown Dirty Deal
TTITLE3=T-Bone Jumps Again
TTITLE4=They Call It Stormy Monday
TTITLE5=Midnight Blues
TTITLE6=Long Skirt Baby Blues
TTITLE7=Description Blues
TTITLE8=Alimony Blues
TTITLE9=I'm About to Lose My Mind
TTITLE10=Bye Bye Baby
TTITLE11=Tell Me What's the Reason
TTITLE12=Strollin' with Bones
TTITLE13=Street Walking Woman
TTITLE14=The Hustle Is On
TTITLE15=News for You Baby
EXTD=
EXTT0=YEAR: 1949
EXTT1=YEAR: 1949
EXTT2=YEAR: 1949
EXTT3=YEAR: 1949
EXTT4=YEAR: 1949
EXTT5=YEAR: 1949
EXTT6=YEAR: 1949
EXTT7=YEAR: 1949
EXTT8=YEAR: 1951
EXTT9=YEAR: 1951
EXTT10=YEAR: 1953
EXTT11=YEAR: 1951
EXTT12=YEAR: 1950
EXTT13=YEAR: 1952
EXTT14=YEAR: 1950
EXTT15=YEAR: 1952
PLAYORDER=
